HIERARCHY
ROOT hip
{
  OFFSET 0 0 0
  CHANNELS 6 Xposition Yposition Zposition Zrotation Yrotation Xrotation
  JOINT abdomen
  {
    OFFSET 0 20.6881 -0.73152
    CHANNELS 3 Zrotation Xrotation Yrotation
    JOINT chest
    {
      OFFSET 0 11.7043 -0.48768
      CHANNELS 3 Zrotation Xrotation Yrotation
      JOINT neck
      {
        OFFSET 0 22.1894 -2.19456
        CHANNELS 3 Zrotation Xrotation Yrotation
        JOINT head
        {
          OFFSET -0.24384 7.07133 1.2192
          CHANNELS 3 Zrotation Xrotation Yrotation
          JOINT leftEye
          {
            OFFSET 4.14528 8.04674 8.04672
            CHANNELS 3 Zrotation Xrotation Yrotation
            End Site
            {
              OFFSET 1 0 0
            }
          }
          JOINT rightEye
          {
            OFFSET -3.6576 8.04674 8.04672
            CHANNELS 3 Zrotation Xrotation Yrotation
            End Site
            {
              OFFSET 1 0 0
            }
          }
        }
      }
      JOINT rCollar
      {
        OFFSET -2.68224 19.2634 -4.8768
        CHANNELS 3 Zrotation Xrotation Yrotation
        JOINT rShldr
        {
          OFFSET -8.77824 -1.95073 1.46304
          CHANNELS 3 Zrotation Xrotation Yrotation
          JOINT rForeArm
          {
            OFFSET -28.1742 -1.7115 0.48768
            CHANNELS 3 Zrotation Xrotation Yrotation
            JOINT rHand
            {
              OFFSET -22.5879 0.773209 7.07136
              CHANNELS 3 Zrotation Xrotation Yrotation
              JOINT rThumb1
              {
                OFFSET -1.2192 -0.487915 3.41376
                CHANNELS 3 Zrotation Xrotation Yrotation
                JOINT rThumb2
                {
                  OFFSET -3.37035 -0.52449 3.41376
                  CHANNELS 3 Zrotation Xrotation Yrotation
                  End Site
                  {
                    OFFSET -1.78271 -1.18214 1.43049
                  }
                }
              }
              JOINT rIndex1
              {
                OFFSET -7.75947 0.938293 5.60832
                CHANNELS 3 Zrotation Xrotation Yrotation
                JOINT rIndex2
                {
                  OFFSET -2.54057 -0.884171 1.56538
                  CHANNELS 3 Zrotation Xrotation Yrotation
                  End Site
                  {
                    OFFSET -1.62519 -0.234802 1.16502
                  }
                }
              }
              JOINT rMid1
              {
                OFFSET -8.24714 1.18213 3.41376
                CHANNELS 3 Zrotation Xrotation Yrotation
                JOINT rMid2
                {
                  OFFSET -3.10165 -0.590103 1.0647
                  CHANNELS 3 Zrotation Xrotation Yrotation
                  End Site
                  {
                    OFFSET -2.48547 -0.328903 0.83742
                  }
                }
              }
              JOINT rRing1
              {
                OFFSET -8.82822 0.546677 1.51678
                CHANNELS 3 Zrotation Xrotation Yrotation
                JOINT rRing2
                {
                  OFFSET -2.60934 -0.819778 -0.0198488
                  CHANNELS 3 Zrotation Xrotation Yrotation
                  End Site
                  {
                    OFFSET -2.33842 -0.294052 0.168128
                  }
                }
              }
              JOINT rPinky1
              {
                OFFSET -8.27202 -0.0477905 -0.4584
                CHANNELS 3 Zrotation Xrotation Yrotation
                JOINT rPinky2
                {
                  OFFSET -1.82734 -0.647385 -0.700984
                  CHANNELS 3 Zrotation Xrotation Yrotation
                  End Site
                  {
                    OFFSET -1.69225 -0.51767 -0.607171
                  }
                }
              }
            }
          }
        }
      }
      JOINT lCollar
      {
        OFFSET 2.68224 19.2634 -4.8768
        CHANNELS 3 Zrotation Xrotation Yrotation
        JOINT lShldr
        {
          OFFSET 8.77824 -1.95073 1.46304
          CHANNELS 3 Zrotation Xrotation Yrotation
          JOINT lForeArm
          {
            OFFSET 28.1742 -1.7115 0.48768
            CHANNELS 3 Zrotation Xrotation Yrotation
            JOINT lHand
            {
              OFFSET 22.5879 0.773209 7.07136
              CHANNELS 3 Zrotation Xrotation Yrotation
              JOINT lThumb1
              {
                OFFSET 1.2192 -0.487915 3.41376
                CHANNELS 3 Zrotation Xrotation Yrotation
                JOINT lThumb2
                {
                  OFFSET 3.37035 -0.52449 3.41376
                  CHANNELS 3 Zrotation Xrotation Yrotation
                  End Site
                  {
                    OFFSET 1.78271 -1.18214 1.43049
                  }
                }
              }
              JOINT lIndex1
              {
                OFFSET 7.75947 0.938293 5.60832
                CHANNELS 3 Zrotation Xrotation Yrotation
                JOINT lIndex2
                {
                  OFFSET 2.54057 -0.884171 1.56538
                  CHANNELS 3 Zrotation Xrotation Yrotation
                  End Site
                  {
                    OFFSET 1.62519 -0.234802 1.16502
                  }
                }
              }
              JOINT lMid1
              {
                OFFSET 8.24714 1.18213 3.41376
                CHANNELS 3 Zrotation Xrotation Yrotation
                JOINT lMid2
                {
                  OFFSET 3.10165 -0.590103 1.0647
                  CHANNELS 3 Zrotation Xrotation Yrotation
                  End Site
                  {
                    OFFSET 2.48547 -0.328903 0.83742
                  }
                }
              }
              JOINT lRing1
              {
                OFFSET 8.82822 0.546677 1.51678
                CHANNELS 3 Zrotation Xrotation Yrotation
                JOINT lRing2
                {
                  OFFSET 2.60934 -0.819778 -0.0198488
                  CHANNELS 3 Zrotation Xrotation Yrotation
                  End Site
                  {
                    OFFSET 2.33842 -0.294052 0.168128
                  }
                }
              }
              JOINT lPinky1
              {
                OFFSET 8.27202 -0.0477905 -0.4584
                CHANNELS 3 Zrotation Xrotation Yrotation
                JOINT lPinky2
                {
                  OFFSET 1.82734 -0.647385 -0.700984
                  CHANNELS 3 Zrotation Xrotation Yrotation
                  End Site
                  {
                    OFFSET 1.69225 -0.51767 -0.607171
                  }
                }
              }
            }
          }
        }
      }
    }
  }
  JOINT rButtock
  {
    OFFSET -8.77824 4.35084 1.2192
    CHANNELS 3 Zrotation Xrotation Yrotation
    JOINT rThigh
    {
      OFFSET 0 -1.70687 -2.19456
      CHANNELS 3 Zrotation Xrotation Yrotation
      JOINT rShin
      {
        OFFSET 0 -36.8199 0.73152
        CHANNELS 3 Zrotation Xrotation Yrotation
        JOINT rFoot
        {
          OFFSET 0.73152 -45.1104 -5.12064
          CHANNELS 3 Zrotation Xrotation Yrotation
          End Site
          {
            OFFSET -1.1221 -3.69964 12.103
          }
        }
      }
    }
  }
  JOINT lButtock
  {
    OFFSET 8.77824 4.35084 1.2192
    CHANNELS 3 Zrotation Xrotation Yrotation
    JOINT lThigh
    {
      OFFSET 0 -1.70687 -2.19456
      CHANNELS 3 Zrotation Xrotation Yrotation
      JOINT lShin
      {
        OFFSET 0 -36.8199 0.73152
        CHANNELS 3 Zrotation Xrotation Yrotation
        JOINT lFoot
        {
          OFFSET -0.73152 -45.1104 -5.12064
          CHANNELS 3 Zrotation Xrotation Yrotation
          End Site
          {
            OFFSET 1.1221 -3.69964 12.103
          }
        }
      }
    }
  }
}
MOTION
Frames:	9
Frame Time:	0.00833333
52.0593 85.5269 139.658 0.0 0.0 0.0 2.34099 -0.00222386 0.0637208 0.646591 0.00595036 0.111937 -1.16838e-13 7.95139e-16 6.70898e-16 -3.52414e-13 3.18055e-15 1.91175e-15 -0.0 0.0 0.0 -0.0 0.0 0.0 -5.85937e-14 2.25186e-16 4.96962e-16 -1.23095e-12 4.40432e-15 3.77691e-15 -2.12387e-11 6.49648e-12 3.21236e-13 -2.4278e-10 -5.48822e-12 9.70069e-13 -5.72732e-10 2.18808e-12 2.8466e-12 -9.89097e-10 3.77532e-12 4.95133e-12 -5.72726e-10 2.19021e-12 2.83069e-12 7.73091 5.47488 0.417314 -5.72733e-10 2.18733e-12 2.85614e-12 2.90554 0.965183 0.102902 -5.72727e-10 2.18772e-12 2.85614e-12 10.2786 0.731801 0.0259123 -5.7274e-10 2.1914e-12 2.8625e-12 2.22167 -0.733487 -0.20892 -5.87925e-14 2.24021e-16 9.93923e-17 -1.23431e-12 4.90128e-15 1.98785e-15 -2.11966e-11 -6.18837e-12 3.27597e-13 -2.42828e-10 7.22421e-12 9.66889e-13 -5.72738e-10 2.24196e-12 2.85296e-12 -9.89078e-10 3.87073e-12 4.94735e-12 -5.72743e-10 2.24189e-12 2.8625e-12 -7.73091 5.47488 -0.417314 -5.72737e-10 2.2412e-12 2.84978e-12 -2.90554 0.965183 -0.102902 -5.72744e-10 2.24179e-12 2.85137e-12 -10.2786 0.731801 -0.0259123 -5.72729e-10 2.24348e-12 2.83705e-12 -2.22167 -0.733487 0.20892 -2.03217e-16 0.0 -3.88251e-19 2.21584 -8.02969 -0.231383 0.00606944 8.97361 0.152051 -0.47806 -0.951423 0.0349037 2.03217e-16 0.0 3.88251e-19 1.35242 -1.92788 -0.00536382 0.00846399 -2.07867 0.0694372 0.423494 3.99898 -0.127235
53.8093 84.8466 128.004 -179.116 8.2159 179.479 3.00278 0.828717 0.591698 0.74157 -2.30566 0.327083 -1.98575 2.66227 -0.119813 2.53428 -4.65283 0.445919 -0.0 0.0 0.0 -0.0 0.0 0.0 -4.12105e-14 -6.63142e-15 9.10876e-15 21.6361 11.969 -2.0378 -5.92615 -3.14995 8.70575 0.0404948 4.47124 0.621528 -2.97764e-10 -1.69536e-10 8.61027e-11 -5.13151e-10 -2.91489e-10 1.47108e-10 -2.9776e-10 -1.69532e-10 8.60875e-11 7.73091 5.47488 0.417314 -2.97766e-10 -1.69536e-10 8.61105e-11 2.90554 0.965183 0.102902 -2.9776e-10 -1.69535e-10 8.61069e-11 10.2786 0.731801 0.0259123 -2.97775e-10 -1.69532e-10 8.61124e-11 2.22167 -0.733487 -0.20892 -4.13484e-14 -6.63421e-15 8.76788e-15 -23.0499 4.2465 2.39002 5.19602 -2.59447 -7.84621 -0.0220727 3.3046 -0.46167 -1.61313e-10 2.66897e-10 3.97165e-11 -2.77327e-10 4.60798e-10 6.56975e-11 -1.61317e-10 2.669e-10 3.97268e-11 -7.73091 5.47488 -0.417314 -1.6131e-10 2.669e-10 3.97142e-11 -2.90554 0.965183 -0.102902 -1.61318e-10 2.66901e-10 3.97144e-11 -10.2786 0.731801 -0.0259123 -1.61306e-10 2.66902e-10 3.97031e-11 -2.22167 -0.733487 0.20892 -2.03217e-16 0.0 -3.88251e-19 4.3413 -7.81997 5.11384 0.0208616 12.2921 0.202717 -1.21971 -3.78205 -7.7902 2.03217e-16 0.0 3.88251e-19 0.115298 -2.93613 -6.00459 -0.0124478 3.57908 -0.112033 1.24172 -1.0869 6.6691
53.7778 84.8453 127.997 -179.078 7.8207 179.51 3.69382 1.70952 1.13619 0.876826 -4.7518 0.553369 -4.09622 5.48498 -0.2388 5.29739 -9.57276 0.946588 -0.0 0.0 0.0 -0.0 0.0 0.0 -2.23838e-14 -1.35163e-14 1.91548e-14 45.5009 24.5964 -4.51137 -11.1713 -6.24568 18.0055 -0.0233557 9.17164 1.28785 6.20844e-12 -3.62858e-10 1.76524e-10 1.30028e-11 -6.23729e-10 3.01329e-10 6.21218e-12 -3.62851e-10 1.7651e-10 7.73091 5.47488 0.417314 6.20544e-12 -3.62857e-10 1.7653e-10 2.90554 0.965183 0.102902 6.21347e-12 -3.62854e-10 1.76523e-10 10.2786 0.731801 0.0259123 6.19656e-12 -3.62853e-10 1.76527e-10 2.22167 -0.733487 -0.20892 -2.2456e-14 -1.35209e-14 1.88752e-14 -47.8359 8.64898 4.96614 9.92988 -5.17993 -16.2009 0.0128445 6.77058 -0.951118 2.82961e-10 5.5737e-10 8.31522e-11 4.9131e-10 9.6235e-10 1.37546e-10 2.82958e-10 5.57375e-10 8.31634e-11 -7.73091 5.47488 -0.417314 2.82965e-10 5.57377e-10 8.31508e-11 -2.90554 0.965183 -0.102902 2.82957e-10 5.57377e-10 8.31495e-11 -10.2786 0.731801 -0.0259123 2.82965e-10 5.57378e-10 8.31413e-11 -2.22167 -0.733487 0.20892 -2.03217e-16 0.0 -3.88251e-19 6.54767 -7.52305 10.758 0.0298515 15.8018 0.258437 -2.83756 -6.57908 -16.1331 2.03217e-16 0.0 3.88251e-19 -1.42038 -3.93726 -12.3578 0.00477961 9.56354 -0.307778 3.41283 -6.29099 13.9385
53.8192 84.8219 128.058 -179.037 7.995 179.784 4.28038 2.4897 1.64902 0.98397 -6.92838 0.762145 -5.92358 7.98668 -0.362568 7.82571 -13.955 1.37391 -0.0 0.0 0.0 -0.0 0.0 0.0 -6.44399e-15 -2.03446e-14 2.63324e-14 67.9576 35.7035 -7.3716 -14.9906 -8.57881 26.3952 -0.176415 13.4073 1.91101 2.5217e-10 -5.12985e-10 2.52615e-10 4.38743e-10 -8.82019e-10 4.3142e-10 2.52173e-10 -5.12977e-10 2.52601e-10 7.73091 5.47488 0.417314 2.52166e-10 -5.12983e-10 2.52619e-10 2.90554 0.965183 0.102902 2.52175e-10 -5.12979e-10 2.52608e-10 10.2786 0.731801 0.0259123 2.52157e-10 -5.12979e-10 2.52612e-10 2.22167 -0.733487 -0.20892 -6.46031e-15 -2.03507e-14 2.61049e-14 -70.2319 12.6497 7.32921 13.5089 -7.20083 -23.7127 0.0955897 9.91121 -1.40366 6.61538e-10 7.96208e-10 1.13444e-10 1.14617e-09 1.37465e-09 1.87198e-10 6.61535e-10 7.96215e-10 1.13456e-10 -7.73091 5.47488 -0.417314 6.61544e-10 7.96218e-10 1.13443e-10 -2.90554 0.965183 -0.102902 6.61535e-10 7.96219e-10 1.1344e-10 -10.2786 0.731801 -0.0259123 6.61539e-10 7.96218e-10 1.13435e-10 -2.22167 -0.733487 0.20892 -2.03217e-16 0.0 -3.88251e-19 8.46764 -7.21346 15.7849 0.0317182 18.929 0.310627 -4.97117 -8.7576 -23.6818 2.03217e-16 0.0 3.88251e-19 -2.98047 -4.75634 -18.0436 0.055917 14.8941 -0.490713 6.46556 -10.5748 20.6233
53.8638 84.8281 128.082 -178.994 8.057 179.897 4.63647 3.01909 2.08146 0.984575 -8.43152 0.922823 -7.06339 9.68594 -0.495767 9.59191 -16.9971 1.57978 -0.0 0.0 0.0 -0.0 0.0 0.0 2.27883e-15 -2.70316e-14 2.6339e-14 84.5907 43.2 -10.0218 -17.1962 -9.84783 32.2409 -0.345429 16.4871 2.38394 3.53102e-10 -5.55128e-10 2.92878e-10 6.13449e-10 -9.55435e-10 5.01185e-10 3.53105e-10 -5.55119e-10 2.92865e-10 7.73091 5.47488 0.417314 3.53098e-10 -5.55124e-10 2.92881e-10 2.90554 0.965183 0.102902 3.53108e-10 -5.55121e-10 2.92869e-10 10.2786 0.731801 0.0259123 3.53089e-10 -5.55119e-10 2.92872e-10 2.22167 -0.733487 -0.20892 2.2934e-15 -2.70382e-14 2.61402e-14 -85.9058 15.7295 9.01853 15.6557 -8.37125 -28.9493 0.187373 12.2408 -1.74727 8.75872e-10 9.05959e-10 1.10874e-10 1.51661e-09 1.56384e-09 1.81358e-10 8.75869e-10 9.05967e-10 1.10887e-10 -7.73091 5.47488 -0.417314 8.75878e-10 9.0597e-10 1.10874e-10 -2.90554 0.965183 -0.102902 8.75869e-10 9.05971e-10 1.10871e-10 -10.2786 0.731801 -0.0259123 8.75872e-10 9.05971e-10 1.10868e-10 -2.22167 -0.733487 0.20892 -2.03217e-16 0.0 -3.88251e-19 9.77019 -6.99774 19.2841 0.029315 21.1001 0.348764 -6.81859 -10.0293 -29.0251 2.03217e-16 0.0 3.88251e-19 -4.17462 -5.28986 -22.0282 0.112871 18.5904 -0.625168 9.19528 -13.2539 25.4349
53.8809 84.8528 128.088 -178.996 7.9512 179.937 4.66872 3.19636 2.4112 0.798166 -8.99005 1.01396 -7.2064 10.2512 -0.655937 10.1883 -18.1673 1.41031 -0.0 0.0 0.0 -0.0 0.0 0.0 -3.95008e-16 -3.41171e-14 9.11381e-15 91.5128 45.7707 -11.2073 -17.9127 -10.1962 34.3888 -0.439405 17.96 2.61663 2.48106e-10 -4.53184e-10 2.8795e-10 4.31829e-10 -7.8247e-10 4.95102e-10 2.48109e-10 -4.53175e-10 2.87939e-10 7.73091 5.47488 0.417314 2.48104e-10 -4.53176e-10 2.87952e-10 2.90554 0.965183 0.102902 2.48114e-10 -4.53177e-10 2.87939e-10 10.2786 0.731801 0.0259123 2.48095e-10 -4.53171e-10 2.87942e-10 2.22167 -0.733487 -0.20892 -3.86921e-16 -3.4123e-14 8.90881e-15 -91.776 17.6021 9.63479 16.3777 -8.72498 -30.8908 0.242219 13.4726 -1.9317 8.54365e-10 8.36784e-10 5.64581e-11 1.47847e-09 1.44361e-09 8.7782e-11 8.5436e-10 8.36791e-10 5.64716e-11 -7.73091 5.47488 -0.417314 8.5437e-10 8.36793e-10 5.64583e-11 -2.90554 0.965183 -0.102902 8.5436e-10 8.36794e-10 5.64556e-11 -10.2786 0.731801 -0.0259123 8.54365e-10 8.36794e-10 5.64539e-11 -2.22167 -0.733487 0.20892 -2.03217e-16 0.0 -3.88251e-19 10.2539 -6.9749 20.6468 0.0273359 21.9259 0.364402 -7.63044 -10.4602 -31.1879 2.03217e-16 0.0 3.88251e-19 -4.67636 -5.54911 -23.6105 0.140113 19.9965 -0.677722 10.3605 -14.1993 27.3022
53.8565 84.8569 128.129 -179.063 7.797 180.143 4.47496 3.1224 2.66677 0.474737 -8.87407 1.05446 -6.64481 10.0069 -0.833544 9.94061 -17.9997 0.969742 -0.0 0.0 0.0 -0.0 0.0 0.0 -1.11478e-14 -4.14588e-14 -2.00773e-14 90.9931 44.89 -10.932 -17.7146 -10.0387 33.87 -0.45312 18.2862 2.66711 -3.84356e-12 -2.47985e-10 2.50504e-10 -4.07752e-12 -4.32926e-10 4.34432e-10 -3.84043e-12 -2.47976e-10 2.50496e-10 7.73091 5.47488 0.417314 -3.84295e-12 -2.47972e-10 2.50507e-10 2.90554 0.965183 0.102902 -3.83431e-12 -2.47977e-10 2.50495e-10 10.2786 0.731801 0.0259123 -3.85081e-12 -2.47965e-10 2.50498e-10 2.22167 -0.733487 -0.20892 -1.11727e-14 -4.1463e-14 -2.03133e-14 -90.5432 18.6316 9.44891 16.2017 -8.59944 -30.4602 0.256911 13.919 -1.99809 6.6468e-10 6.39718e-10 -3.4713e-11 1.14897e-09 1.10223e-09 -6.79833e-11 6.64673e-10 6.39723e-10 -3.46989e-11 -7.73091 5.47488 -0.417314 6.64683e-10 6.39724e-10 -3.4713e-11 -2.90554 0.965183 -0.102902 6.64672e-10 6.39725e-10 -3.47145e-11 -10.2786 0.731801 -0.0259123 6.64682e-10 6.39726e-10 -3.4715e-11 -2.22167 -0.733487 0.20892 -2.03217e-16 0.0 -3.88251e-19 10.1617 -7.10097 20.4851 0.0272395 21.791 0.36316 -7.56633 -10.4129 -31.0526 2.03217e-16 0.0 3.88251e-19 -4.64197 -5.64201 -23.4731 0.136805 19.7669 -0.667693 10.1654 -14.0599 26.9924
53.867 84.8652 128.136 -179.144 7.7427 180.179 4.21685 2.95042 2.8754 0.129958 -8.49157 1.07337 -5.8758 9.45588 -0.992414 9.40515 -17.2929 0.48636 -0.0 0.0 0.0 -0.0 0.0 0.0 -2.30635e-14 -4.79488e-14 -4.25469e-14 87.5004 42.7054 -10.1316 -17.1391 -9.66826 32.2881 -0.430782 18.1425 2.64145 -3.09955e-10 9.86523e-12 1.92107e-10 -5.33892e-10 7.15586e-12 3.38152e-10 -3.09951e-10 9.87323e-12 1.921e-10 7.73091 5.47488 0.417314 -3.09952e-10 9.88343e-12 1.9211e-10 2.90554 0.965183 0.102902 -3.09944e-10 9.87226e-12 1.92099e-10 10.2786 0.731801 0.0259123 -3.09959e-10 9.89117e-12 1.92102e-10 2.22167 -0.733487 -0.20892 -2.31282e-14 -4.79511e-14 -4.28202e-14 -86.5173 19.2913 8.97943 15.6726 -8.28828 -29.1126 0.251271 13.9939 -2.00795 4.17166e-10 3.88625e-10 -1.3124e-10 7.19548e-10 6.67659e-10 -2.3255e-10 4.17158e-10 3.88627e-10 -1.31225e-10 -7.73091 5.47488 -0.417314 4.17168e-10 3.88627e-10 -1.3124e-10 -2.90554 0.965183 -0.102902 4.17157e-10 3.88627e-10 -1.3124e-10 -10.2786 0.731801 -0.0259123 4.17171e-10 3.88629e-10 -1.3124e-10 -2.22167 -0.733487 0.20892 -2.03217e-16 0.0 -3.88251e-19 9.83879 -7.26946 19.7222 0.0279585 21.2829 0.35492 -7.1428 -10.1766 -29.9635 2.03217e-16 0.0 3.88251e-19 -4.39263 -5.63834 -22.654 0.121442 18.8875 -0.633855 9.45878 -13.4955 25.8666
53.9102 84.8638 128.153 -179.16 7.8248 180.275 4.05318 2.83351 3.06452 -0.119133 -8.25052 1.09995 -5.38958 9.10086 -1.09752 9.11307 -16.8474 0.180801 -0.0 0.0 0.0 -0.0 0.0 0.0 -2.92264e-14 -5.24792e-14 -3.96078e-14 85.4524 41.3689 -9.69389 -16.7366 -9.39005 31.2436 -0.424524 18.2049 2.6492 -5.77436e-10 2.69762e-10 1.24322e-10 -9.97238e-10 4.51731e-10 2.2524e-10 -5.77432e-10 2.69766e-10 1.24315e-10 7.73091 5.47488 0.417314 -5.77432e-10 2.69782e-10 1.24325e-10 2.90554 0.965183 0.102902 -5.77425e-10 2.69766e-10 1.24314e-10 10.2786 0.731801 0.0259123 -5.77437e-10 2.6979e-10 1.24318e-10 2.22167 -0.733487 -0.20892 -2.93176e-14 -5.24797e-14 -3.9906e-14 -84.05 20.0495 8.76405 15.3446 -8.09216 -28.3008 0.25061 14.1108 -2.02466 2.22171e-10 1.57364e-10 -2.01723e-10 3.816e-10 2.6787e-10 -3.52529e-10 2.22163e-10 1.57366e-10 -2.01708e-10 -7.73091 5.47488 -0.417314 2.22173e-10 1.57364e-10 -2.01723e-10 -2.90554 0.965183 -0.102902 2.22161e-10 1.57365e-10 -2.01723e-10 -10.2786 0.731801 -0.0259123 2.22178e-10 1.57367e-10 -2.01723e-10 -2.22167 -0.733487 0.20892 -2.03217e-16 0.0 -3.88251e-19 9.63738 -7.37075 19.2818 0.0283611 20.9891 0.349589 -6.88539 -10.0305 -29.2663 2.03217e-16 0.0 3.88251e-19 -4.26025 -5.60246 -22.1929 0.112459 18.3442 -0.614961 9.0905 -13.1662 25.2868
